<svg xmlns="http://www.w3.org/2000/svg" viewBox="0 0 81.92 43.2"><defs><style>.cls-1{fill:#df0024;fill-rule:evenodd}.cls-2{fill:none}</style></defs><title>logo-claro-c</title><g id="Layer_2" data-name="Layer 2"><g id="Layer_2-2" data-name="Layer 2"><path class="cls-1" d="M57.22 19.72a4.29 4.29 0 0 1 .94-1.37 3.83 3.83 0 0 1 3-1.23 4 4 0 0 1 3.06 1.23 4.41 4.41 0 0 1 1.23 3 4.4 4.4 0 0 1-1.27 3 4.21 4.21 0 0 1-6 0 4.28 4.28 0 0 1-.94-4.69zm9.68-4.08a7.89 7.89 0 0 0-5.75-2.38 7.67 7.67 0 0 0-5.68 2.38 7.83 7.83 0 0 0-2.39 5.76 7.69 7.69 0 0 0 2.39 5.72 7.7 7.7 0 0 0 5.68 2.42 7.93 7.93 0 0 0 5.75-2.42 7.8 7.8 0 0 0 2.35-5.72 8 8 0 0 0-2.35-5.76zM10 9.28a9.21 9.21 0 0 0-7 2.94 9.6 9.6 0 0 0-3 7.1 9.74 9.74 0 0 0 3 7.13 9.58 9.58 0 0 0 7 2.9 9.78 9.78 0 0 0 6.09-2A10.08 10.08 0 0 0 19.61 22h-4.07a7 7 0 0 1-2.2 2.56 6.29 6.29 0 0 1-3.32 1 6 6 0 0 1-4.38-1.86 5.76 5.76 0 0 1-1.79-4.38 5.76 5.76 0 0 1 1.79-4.38 6.09 6.09 0 0 1 7.7-.82 6.69 6.69 0 0 1 2.2 2.56h4.07a9.94 9.94 0 0 0-3.51-5.31A9.38 9.38 0 0 0 10 9.28M36.31 22l.75-.41v1.56A3.25 3.25 0 0 1 36 25.89a4.11 4.11 0 0 1-2.43.78 2.13 2.13 0 0 1-1.38-.45 1.91 1.91 0 0 1-.56-1.52 1.92 1.92 0 0 1 .91-1.7 5.17 5.17 0 0 1 1.83-.52zm-1.64-8.73c-2.61 0-4.45.67-5.49 2a6.08 6.08 0 0 0-1.12 3.38h3.88a2.5 2.5 0 0 1 .56-1.41 2.34 2.34 0 0 1 2.05-.74 3.48 3.48 0 0 1 1.91.37 1.39 1.39 0 0 1 .67 1.3 1.28 1.28 0 0 1-.9 1.19l-3 .48a9.46 9.46 0 0 0-3.36 1A4.36 4.36 0 0 0 27.75 25a4.13 4.13 0 0 0 1.31 3.31 5 5 0 0 0 3.18 1.08 7.61 7.61 0 0 0 5-1.6v1.6h3.89V18.05a4 4 0 0 0-1.94-3.83 9.09 9.09 0 0 0-4.52-1zM21.59 29.42h3.88V9.28h-3.88zm28.62-15.64A6.16 6.16 0 0 0 47.44 16v-2h-3.7v15.42h3.85V22a5.48 5.48 0 0 1 .49-2.71 3.64 3.64 0 0 1 1.35-1.49 3.79 3.79 0 0 1 2.13-.67l1.2.07v-3.94l-1 .07-1.49.41m19.72.07l9.38-9.33-2.53-2.41-9.38 9.33 2.47 2.45m-10-3.72h3.47V.14h-3.52zm11.77 11h10.22v-3.41H71.65z"/><path class="cls-2" d="M0 0h81.92v43.2H0z"/></g></g></svg>