<svg xmlns="http://www.w3.org/2000/svg" viewBox="0 0 108.64 43.2"><defs><style>.cls-1{fill:#fff;fill-rule:evenodd}.cls-2{fill:none}</style></defs><title>logo-cubacel</title><g id="Layer_2" data-name="Layer 2"><g id="Layer_1-2" data-name="Layer 1"><path class="cls-1" d="M103.86 7.06c-.12.75-.22 1.44-.32 2.06s-.18 1.2-.28 1.74L103 12.5c-.1.55-.22 1.12-.34 1.74s-.27 1.31-.42 2.07l-.55 2.61c-.22 1-.46 2.09-.73 3.36-.23 1.06-.48 2.11-.76 3.16s-.58 2.09-.89 3.14l1-.11c.41 0 .87-.05 1.35-.07a12.9 12.9 0 0 1 1.36.07l1 .11q.24-1.34.55-2.94c.22-1.08.43-2.2.68-3.39s.5-2.38.76-3.59l.77-3.55c.26-1.16.51-2.25.74-3.27s.45-1.94.64-2.76.36-1.48.5-2l-.85.1-.78.05H105c-.37 0-.77-.11-1.14-.17zm-14.8 13.15a10.48 10.48 0 0 1 .27-1.34 10.72 10.72 0 0 1 .48-1.33 6.38 6.38 0 0 1 .7-1.16 3.45 3.45 0 0 1 .92-.82 2.3 2.3 0 0 1 1.15-.31 1.51 1.51 0 0 1 .71.17 1.46 1.46 0 0 1 .59.57 2 2 0 0 1 .24 1 7.68 7.68 0 0 1-.1 1.24c-.07.39-.13.76-.22 1.09s-.16.6-.23.83zm7.7 5.54a5.72 5.72 0 0 1-.8.53 5.52 5.52 0 0 1-1.24.51A6.75 6.75 0 0 1 93 27a4.11 4.11 0 0 1-1.63-.29 3.35 3.35 0 0 1-1.2-.71 4.16 4.16 0 0 1-.76-1 4.79 4.79 0 0 1-.4-1.17 5.2 5.2 0 0 1-.12-1.12 3.72 3.72 0 0 1 0-.47v-.47h6.9l1.17.09.78.1A9 9 0 0 0 98 20.7a9.83 9.83 0 0 0 .09-1.29 5.93 5.93 0 0 0-.71-3 4.37 4.37 0 0 0-2-1.81 7 7 0 0 0-3-.6 8.77 8.77 0 0 0-2.85.46 7.78 7.78 0 0 0-2.29 1.25 7.89 7.89 0 0 0-1.7 1.86 8.2 8.2 0 0 0-1.05 2.28 8.85 8.85 0 0 0-.36 2.51 6.91 6.91 0 0 0 .87 3.53 5.71 5.71 0 0 0 2.47 2.29 8.35 8.35 0 0 0 3.84.82 13.49 13.49 0 0 0 2.25-.17 11 11 0 0 0 1.61-.38l1-.35c.22-.44.4-.82.59-1.12l.35-.6zM81 25.87a5.35 5.35 0 0 1-1 .69 3.89 3.89 0 0 1-1 .33 4.33 4.33 0 0 1-.89.09 3.87 3.87 0 0 1-1.71-.35 3.07 3.07 0 0 1-1.15-.95 4 4 0 0 1-.66-1.41 6.68 6.68 0 0 1-.21-1.72 11.3 11.3 0 0 1 .62-3.66 6.79 6.79 0 0 1 .82-1.61A4.08 4.08 0 0 1 77 16.12a2.9 2.9 0 0 1 1.55-.44 2.64 2.64 0 0 1 1.54.41 2.11 2.11 0 0 1 .82 1.09 4 4 0 0 1 .17 1.57l.92.12c.09-.34.23-.77.41-1.33a14.77 14.77 0 0 1 .8-1.92 7.25 7.25 0 0 0-1.33-.8 9.84 9.84 0 0 0-1.74-.6 9 9 0 0 0-2.07-.22 9.52 9.52 0 0 0-2.79.38 7.63 7.63 0 0 0-3.79 2.5 8.44 8.44 0 0 0-1.09 1.74 8.79 8.79 0 0 0-.62 1.82 8.11 8.11 0 0 0-.2 1.71 6.88 6.88 0 0 0 .55 2.77 6.3 6.3 0 0 0 1.54 2.14A7 7 0 0 0 74 28.44a8.66 8.66 0 0 0 2.92.48 10.69 10.69 0 0 0 1.77-.14 8.42 8.42 0 0 0 1.71-.47c.18-.39.37-.73.54-1s.38-.62.59-.94zm-18.33-4.29c-.05.22-.12.5-.2.83s-.16.66-.26 1-.17.69-.26 1-.15.56-.22.73a2.56 2.56 0 0 1-.65 1.11 1.71 1.71 0 0 1-1.2.44 1.46 1.46 0 0 1-.84-.24 1.3 1.3 0 0 1-.48-.62 2.21 2.21 0 0 1-.16-.86 3.42 3.42 0 0 1 .34-1.59 2.7 2.7 0 0 1 .84-1 3.94 3.94 0 0 1 1.1-.53 6.41 6.41 0 0 1 1.11-.22 7.28 7.28 0 0 1 .88-.05zm5.15 5.69l-.46.11a3.39 3.39 0 0 1-.47 0 .85.85 0 0 1-.72-.29 1.21 1.21 0 0 1-.22-.75 4.87 4.87 0 0 1 .07-.7c0-.29.11-.61.18-1s.16-.73.25-1.11.18-.75.28-1.12.26-1 .38-1.5a14.57 14.57 0 0 0 .3-1.49 9.58 9.58 0 0 0 .15-1.42 4.71 4.71 0 0 0-.3-1.77 3.21 3.21 0 0 0-.82-1.18 3.79 3.79 0 0 0-1.15-.7A6 6 0 0 0 64 14a9 9 0 0 0-1.3-.09 10.23 10.23 0 0 0-2.95.44 11.93 11.93 0 0 0-2.55 1.11 4.31 4.31 0 0 1 .05.51v.51a3.55 3.55 0 0 1 0 .48v.48a7.15 7.15 0 0 1 1.74-.9 5.7 5.7 0 0 1 1.91-.34 2.62 2.62 0 0 1 1.88.59 2.39 2.39 0 0 1 .61 1.82 2.09 2.09 0 0 1-.15.9 1.08 1.08 0 0 1-.46.5 2.32 2.32 0 0 1-.76.23c-.3 0-.66.09-1.07.11s-.78.05-1.25.11a12.1 12.1 0 0 0-1.45.24 7.6 7.6 0 0 0-1.46.48 4.83 4.83 0 0 0-1.28.84 3.7 3.7 0 0 0-.9 1.3 5.06 5.06 0 0 0-.35 1.87 4 4 0 0 0 .34 1.67 3.27 3.27 0 0 0 .88 1.17 3.88 3.88 0 0 0 1.27.69 4.9 4.9 0 0 0 1.5.23 4.75 4.75 0 0 0 1.55-.24 4.48 4.48 0 0 0 1.14-.58 5.15 5.15 0 0 0 .79-.71 6.56 6.56 0 0 0 .51-.63A4.19 4.19 0 0 0 62.9 28a2.41 2.41 0 0 0 1 .63 3.81 3.81 0 0 0 1.27.19 7.76 7.76 0 0 0 1.18-.1 5.35 5.35 0 0 0 1.3-.43zm-19.1-8.75a10.36 10.36 0 0 1-.09 1.18c-.07.46-.16 1-.28 1.52s-.28 1.12-.48 1.72-.42 1.2-.68 1.8a7.88 7.88 0 0 1-.76 1.38 3.48 3.48 0 0 1-.75.82 2.52 2.52 0 0 1-.73.39 2.61 2.61 0 0 1-.7.1 2.06 2.06 0 0 1-1.16-.31 1.76 1.76 0 0 1-.71-.81 2.76 2.76 0 0 1-.24-1.19 11 11 0 0 1 .12-1.52c.08-.55.17-1.1.3-1.67s.27-1.13.43-1.69.34-1.08.51-1.57a7.89 7.89 0 0 1 .5-1.06 4.22 4.22 0 0 1 .62-.92 2.87 2.87 0 0 1 .82-.64 2.15 2.15 0 0 1 1-.24 2.05 2.05 0 0 1 .79.15 2.13 2.13 0 0 1 .74.47 2.33 2.33 0 0 1 .54.84 3.94 3.94 0 0 1 .21 1.25zm4.66.93a6.22 6.22 0 0 0-.38-2.12 5.5 5.5 0 0 0-1-1.8 4.84 4.84 0 0 0-1.66-1.24 5.24 5.24 0 0 0-2.24-.47 5.7 5.7 0 0 0-2.22.44 6 6 0 0 0-1.92 1.29l.14-.64c.07-.29.13-.62.22-1s.17-.77.26-1.18.17-.81.26-1.19l.23-1c.08-.29.13-.52.16-.68.09-.34.17-.64.25-.95l.24-.91c.09-.29.17-.6.28-.94l-.84.1-.76.05h-1.67L42 7.18l-.83-.1c0 .25-.05.52-.09.82S41 8.55 41 9s-.14.88-.24 1.44-.24 1.21-.4 2l-1 4.47c-.28 1.29-.52 2.41-.74 3.36s-.39 1.8-.55 2.5-.3 1.33-.43 1.85-.24 1-.35 1.45-.22.86-.34 1.28-.24.85-.37 1.32a2.54 2.54 0 0 1 .45-.08h.45l.32.07.9-.65c.27-.2.55-.38.83-.56l.93-.56c.13.17.3.38.52.63a5.54 5.54 0 0 0 .86.73 5 5 0 0 0 1.28.6 5.94 5.94 0 0 0 1.78.15 8 8 0 0 0 2.62-.41 7.5 7.5 0 0 0 2.13-1.12 8.45 8.45 0 0 0 1.64-1.66 9.73 9.73 0 0 0 1.16-2 11 11 0 0 0 .92-4.38zm-28.74 5.23a7.23 7.23 0 0 1 .15-1.21c.11-.53.26-1.21.47-2s.49-1.84.82-3 .72-2.56 1.16-4.15l-.68.09c-.23 0-.47 0-.72.07h-1.77l-1-.05q-.49 0-.91-.1c-.1.72-.21 1.43-.33 2.11s-.25 1.38-.39 2.07L21 20.58l-.26 1.14c-.11.43-.21.86-.3 1.31s-.18.9-.25 1.33a10.16 10.16 0 0 0-.11 1.21 3.33 3.33 0 0 0 .47 1.78 3 3 0 0 0 1.33 1.13 5 5 0 0 0 2 .4 6.84 6.84 0 0 0 2-.29 6 6 0 0 0 1.48-.7 7.18 7.18 0 0 0 1-.85 9.6 9.6 0 0 0 .64-.73c-.17.75-.38 1.5-.61 2.27l1.25-.12c.43 0 .85-.05 1.24-.05s.84 0 1.18.05.66.08 1 .12c.13-1 .3-2 .49-3.1s.4-2.15.63-3.23.46-2.1.68-3.11.46-1.91.66-2.75.4-1.55.57-2.15c-.25 0-.58.09-1 .12s-.8.05-1.24.05h-1.23c-.43 0-.87-.08-1.32-.13-.09.61-.2 1.29-.32 2s-.27 1.55-.45 2.39-.36 1.67-.58 2.5-.47 1.61-.74 2.37a6.87 6.87 0 0 1-.47 1 5 5 0 0 1-.66.9 3.47 3.47 0 0 1-.86.64 2.52 2.52 0 0 1-1.08.25 1.62 1.62 0 0 1-.84-.22 1.52 1.52 0 0 1-.55-.59 1.92 1.92 0 0 1-.11-.84zm-8.2.11A9 9 0 0 1 10.58 27a6.67 6.67 0 0 1-1.42-.15 5.8 5.8 0 0 1-1.5-.55 4.51 4.51 0 0 1-1.34-1.06 4.8 4.8 0 0 1-1-1.71A7.6 7.6 0 0 1 5 21.06a13.88 13.88 0 0 1 .18-2.25 17.35 17.35 0 0 1 .58-2.45 12.43 12.43 0 0 1 1-2.38 9.23 9.23 0 0 1 1.5-2 6.72 6.72 0 0 1 2-1.42 6.39 6.39 0 0 1 2.6-.53 6.69 6.69 0 0 1 3 .74 4.94 4.94 0 0 1 1.35 1 4.42 4.42 0 0 1 .92 1.61l.73.05c0-.43.11-.81.17-1.14a8.1 8.1 0 0 1 .28-1 10 10 0 0 1 .45-1A11.11 11.11 0 0 0 17.41 9a13.51 13.51 0 0 0-2.62-.72A16.26 16.26 0 0 0 12.07 8a13.36 13.36 0 0 0-4.24.65 11.21 11.21 0 0 0-3.36 1.77A11 11 0 0 0 2 13.08a11.74 11.74 0 0 0-1.5 3.19 12.2 12.2 0 0 0-.5 3.5 10.12 10.12 0 0 0 .76 4 7.76 7.76 0 0 0 2.12 2.93 9.21 9.21 0 0 0 3.23 1.73 14 14 0 0 0 4.1.58c.52 0 1.12 0 1.77-.1a14.25 14.25 0 0 0 2-.36 12.79 12.79 0 0 0 2.07-.7c.07-.34.13-.64.21-.94s.16-.58.27-.88A10 10 0 0 1 17 25z"/><path class="cls-2" d="M0 0h108.64v43.2H0z"/></g></g></svg>