<svg xmlns="http://www.w3.org/2000/svg" viewBox="0 0 84.38 43.2"><defs><style>.cls-1{fill:#e2231a;fill-rule:evenodd}.cls-2{fill:none}</style></defs><title>logo-digicel-c</title><g id="Layer_2" data-name="Layer 2"><g id="Layer_2-2" data-name="Layer 2"><path class="cls-1" d="M80.54 9.37c0-1.42.76-2.17 1.92-2.17s1.92.74 1.92 2.17v17.79c0 1.42-.76 2.17-1.92 2.17s-1.92-.74-1.92-2.17V9.37M76.87 22c1.36 0 1.78-.39 1.78-1.87a7 7 0 0 0-7.32-7.08c-4.8 0-7.65 3.38-7.65 8.42 0 3.77 2.14 7.86 7.79 7.86 2.44 0 6.35-1.22 6.35-3.83a1.73 1.73 0 0 0-1.67-1.69c-1.63 0-1.63 2.14-4.68 2.14A3.62 3.62 0 0 1 67.72 22zm-9.15-2.49c.44-2.1 1.66-3.44 3.69-3.44a3.57 3.57 0 0 1 3.41 3.44zM56 13.05c-5.22 0-8 3.47-8 8.45 0 4.54 2.48 7.83 7.72 7.83 4.37 0 6.47-2.61 6.47-4.51a1.7 1.7 0 0 0-1.78-1.66c-2.24 0-1.6 2.79-4.57 2.79-2.33 0-3.59-1.75-3.59-4.45 0-3.92 2-5.07 3.61-5.07 3.06 0 2.33 2.55 4.34 2.55a1.81 1.81 0 0 0 2-1.87c0-2-2.65-4.06-6.21-4.06m-11.54-6a2.13 2.13 0 0 0-2 2.25 2 2 0 1 0 4 0 2.14 2.14 0 0 0-2-2.25m-1.92 8.12v11.99c0 1.15.42 2.17 1.92 2.17s1.92-1 1.92-2.17V15.21c0-1.16-.42-2.16-1.92-2.16s-1.92 1-1.92 2.16m-2.75 12.46V15.1c0-1.34-.6-2-1.87-2s-1.87.71-1.87 2l-.06.53a4.62 4.62 0 0 0-4.36-2.58c-3.48 0-6.48 2.64-6.48 8.24 0 4.27 2.27 7.74 6.62 7.74a5.11 5.11 0 0 0 4-2.58v.89c0 3.41-1 4.75-3.54 4.75-2.32 0-2.66-2.22-4.39-2.22a1.76 1.76 0 0 0-1.7 1.84c0 2.11 3.08 3.59 6.23 3.59 4.3 0 7.36-2.4 7.36-7.62m-7.22-1.83c-2.35 0-3.28-2.19-3.28-4.18 0-2.67.82-4.71 3.48-4.71 1.92 0 3.05 1.39 3.05 4.54s-1.41 4.36-3.26 4.36M21.6 7.09a2.13 2.13 0 0 0-2 2.25 2.14 2.14 0 0 0 2 2.25 2.14 2.14 0 0 0 2-2.25 2.14 2.14 0 0 0-2-2.25m-1.92 8.12v11.95c0 1.15.42 2.17 1.92 2.17s1.92-1 1.92-2.17V15.21c0-1.16-.42-2.16-1.92-2.16s-1.92 1-1.92 2.16M0 26.05c0 2.2.45 2.89 2 2.89h1c6 0 14.49-5.81 14.49-13.65 0-6.87-4.49-8-9.39-8H2.63C1 7.26 0 8 0 10.15zM3.74 11h3.75c3.28 0 6.13.91 6.13 5.19s-5.74 8.53-9.32 8.53h-.56z"/><path class="cls-2" d="M0 0h84.38v43.2H0z"/></g></g></svg>