<svg xmlns="http://www.w3.org/2000/svg" viewBox="0 0 96.77 43.2"><defs><style>.cls-1{fill:none}.cls-2{fill:#fff;fill-rule:evenodd}</style></defs><title>logo-orange</title><g id="Layer_2" data-name="Layer 2"><g id="Layer_2-2" data-name="Layer 2"><path class="cls-1" d="M0 0h96.77v43.2H0z"/><path class="cls-2" d="M4.62 21.8c0 2.21.74 4.65 3.39 4.65s3.36-2.45 3.36-4.65-.74-4.62-3.37-4.62-3.39 2.4-3.39 4.62zm-3.9 0c0-4.58 2.47-8 7.29-8s7.29 3.41 7.29 8-2.47 8-7.29 8-7.3-3.41-7.3-8zm17.19 7.49V14.35h3.57v2.55c.9-1.83 2.51-3.33 4.71-3V18h-1.27c-2.17 0-3.16 1.29-3.16 3.38v7.9zm18.64-1.85a5.2 5.2 0 0 1-4.65 2.39 4.46 4.46 0 0 1-4.57-4.76c0-3.06 2.39-4.33 5.09-4.76l1.58-.22c1.63-.22 2.45-.71 2.45-1.47 0-1.47-1-1.67-2.35-1.69a3 3 0 0 0-2.71 1.9l-3-1.8c.91-2.17 3.37-3 5.62-3.22 2.83-.22 6.6 1.32 6.6 4.8v10.68h-4v-1.85zm-.07-5.5a10 10 0 0 1-2.16.73 5.18 5.18 0 0 0-2.69 1 1.86 1.86 0 0 0 1.5 3.05 3.14 3.14 0 0 0 3.35-3.41v-1.38zm7 7.36V14.35h3.82v1.77a5.24 5.24 0 0 1 4.35-2.17c3.33 0 4.75 2 4.75 5.16v10.18h-3.85v-9c0-1.61-.34-3-2.22-3a2.85 2.85 0 0 0-2.95 3.15v8.87zm19.32-7.71c0 2.06.66 4.36 3.13 4.36s3.12-2.34 3.12-4.42-.73-4.29-3.17-4.29-3.08 2.35-3.08 4.35zm-3.48 9.16h4.21a2.06 2.06 0 0 0 2.3 1.5c2.6 0 3.22-1.25 3.22-3.71v-1.36a4.19 4.19 0 0 1-4 2.12c-4.29 0-6.15-3.77-6.15-7.57s1.66-7.91 6.09-7.91a4.39 4.39 0 0 1 4.15 2.34v-1.8h3.65v14a11.6 11.6 0 0 1-.42 3.59c-1 2.84-4.06 3.51-6.72 3.51-3.08 0-6.11-1.18-6.32-4.66zm26.27-6.35l3.14 1.85c-1.07 2.17-4.18 3.54-6.46 3.54a6.12 6.12 0 0 1-4.95-2.18 9 9 0 0 1-2-5.91c0-4.24 2.29-7.9 6.94-7.9a6.31 6.31 0 0 1 5.28 2.32 9.13 9.13 0 0 1 1.39 6.74H79.4c.09 1.92.9 3.54 3.05 3.54a3.62 3.62 0 0 0 3.14-2zm-6.19-4.53h5.86c0-1.66-1-2.72-3-2.72s-2.91 1-2.9 2.72zM87.92 14H89V9.62h1.6v-1h-4.29v1h1.62V14zm3.37 0V8.67H93l1 4.07 1.07-4.08h1.66V14h-1.01V9.7l-1.1 4.3h-1.15l-1.12-4.3V14z"/></g></g></svg>