<svg xmlns="http://www.w3.org/2000/svg" viewBox="0 0 63.14 43.2"><defs><style>.cls-1{fill:#fff;fill-rule:evenodd}.cls-2{fill:none}</style></defs><title>logo-tigo</title><g id="Layer_2" data-name="Layer 2"><g id="Layer_1-2" data-name="Layer 1"><path class="cls-1" d="M41.63 16.33a.45.45 0 0 0 .59-.26c.11-.46.48-3.54-3.59-4.53-4.74-1.12-10.34.43-12.26 4a12.47 12.47 0 0 0-1.48 4.82A8.64 8.64 0 0 0 30 29a14.56 14.56 0 0 0 9 .59s3.33-1.22 3.37-3.44.37-5.39-1.78-5.42a28 28 0 0 0-2.85 0 25.69 25.69 0 0 1 .33 4.13c-.19.5-1.37 1.82-4.93.83s-4-5-3.15-7.5 4.45-3.57 6.71-3.4a15.06 15.06 0 0 1 4.93 1.54zm-26.75-4.62v13s.41 4.2 3.89 4.36 4.59-1.29 4.67-3.5a3.89 3.89 0 0 1-2.85-.17 2.11 2.11 0 0 1-1.11-1.75v-9.73s-.75-2.38-4.6-2.21zm-10.37.1V7.64a4.48 4.48 0 0 0-4.45 2.91v13.61a6.66 6.66 0 0 0 1.19 2.74 5.85 5.85 0 0 0 4.85 2.25c4.82.13 5.63-2 5.19-4.33 0 0-5.34 2.64-6.63-1.32v-8.13h4.81s2.19-.17 1.78-3.57zM54 2.09a3.56 3.56 0 0 0 .59 0 9.05 9.05 0 0 1 8.15 4.2v2.84s-1.91-3.54-8.25-3.83H54c-6-.1-8.26 3.53-8.26 3.53V6.45c.93-1.58 2.78-4.13 8.26-4.36zm0 9.09a9.11 9.11 0 0 1 9 7.33c.22 1.42.26 6-3 8.69a9.15 9.15 0 0 1-6.08 2h-.19a9.38 9.38 0 0 1-6.48-2.51 9.56 9.56 0 0 1-2.59-6.84 8.48 8.48 0 0 1 1.48-4.66 8.57 8.57 0 0 1 7.63-4zm0 14.51a4.42 4.42 0 0 0 .78-.07c1-.13 4.11-1.26 3.85-5.52S56 14.78 54 14.75h-.11a4 4 0 0 0-1.93.53c-1.26.69-2.59 2.25-2.56 5.09 0 3.9 2.59 5.09 4.26 5.32zm0 9.12a11.89 11.89 0 0 0 2-2.21 9.85 9.85 0 0 1-1.41 6.08 4.8 4.8 0 0 1-.63.86c-2.22 2.64-7 3.7-11.19 3.67a23.57 23.57 0 0 1-6.23-.79 12.78 12.78 0 0 1-2.15-.86c-4.85-2-4.45-8.89-4.45-8.89s2.74 5.58 12.26 6.08A15.74 15.74 0 0 0 54 34.81zM14.32 7.61a2.71 2.71 0 0 0 2.93 2.61 1.55 1.55 0 0 0 .41 0 2.54 2.54 0 0 0 2.41-3 2.29 2.29 0 0 0-2.26-2h-.59c-1.45.01-2.93.84-2.9 2.39z"/><path class="cls-2" d="M0 0h63.14v43.2H0z"/></g></g></svg>